<svg width="24" height="24" viewBox="0 0 24 24" fill="none" xmlns="http://www.w3.org/2000/svg">
<g clip-path="url(#clip0_2302_13847)">
<path d="M8.36839 16.6852C8.81416 17.057 9.41959 17.0317 9.85121 16.6398C10.4406 16.1047 11.1868 15.7833 12 15.7793C12.813 15.7754 13.5622 16.0896 14.1564 16.619C14.5916 17.0067 15.1972 17.0262 15.6396 16.6501C16.2709 16.1133 16.2944 15.0362 15.6767 14.4781C14.6628 13.5621 13.3796 13.0167 11.9875 13.0235C10.5955 13.0302 9.31722 13.588 8.31167 14.5137C7.69898 15.0777 7.73221 16.1546 8.36839 16.6852Z" fill="#00E061"/>
<path d="M4.41126 13.3708L4.41215 13.3715C4.90808 13.7851 5.59099 13.7035 6.01525 13.198C7.52151 11.4032 9.64158 10.279 11.9914 10.2677C14.3413 10.2563 16.4714 11.3599 17.9939 13.1401C18.4227 13.6415 19.1063 13.7165 19.5985 13.298L19.5994 13.2973C20.1841 12.8002 20.251 11.8314 19.7424 11.2349C17.7756 8.92785 15.0197 7.49711 11.979 7.51183C8.93833 7.52655 6.19548 8.98393 4.24964 11.3098C3.74649 11.9113 3.8221 12.8794 4.41126 13.3708Z" fill="#00D05A"/>
<path d="M0.49634 10.0931L0.497559 10.0942C1.00291 10.5157 1.70907 10.4312 2.12063 9.89449C4.52125 6.76358 8.04783 4.77504 11.9809 4.75603C15.914 4.73701 19.4584 6.69134 21.8873 9.79893C22.3037 10.3317 23.0106 10.4093 23.5121 9.98291L23.5133 9.98185C24.0793 9.50063 24.1659 8.56941 23.6959 7.9683C20.82 4.29049 16.6242 1.97767 11.9684 2.00016C7.3127 2.0227 3.13799 4.37596 0.295577 8.08148C-0.168946 8.68707 -0.0739793 9.61742 0.49634 10.0931Z" fill="#00B74F"/>
<path d="M11.9999 22.0002C12.8336 22.0002 13.5095 21.3015 13.5095 20.4396C13.5095 19.5776 12.8336 18.8789 11.9999 18.8789C11.1661 18.8789 10.4902 19.5776 10.4902 20.4396C10.4902 21.3015 11.1661 22.0002 11.9999 22.0002Z" fill="#00F068"/>
<path d="M23.6964 7.96831C20.8206 4.29049 16.6247 1.97767 11.969 2.00016C11.7615 2.00118 11.5551 2.00702 11.3496 2.0172C15.7048 2.23168 19.6069 4.48895 22.3276 7.96831C22.8069 8.58129 22.7092 9.54296 22.1032 10.0157C22.5208 10.3435 23.0897 10.3424 23.5126 9.98287L23.5139 9.98181C24.0799 9.50059 24.1664 8.56942 23.6964 7.96831Z" fill="#019842"/>
<path d="M19.7429 11.2349C17.7761 8.92784 15.0202 7.49711 11.9796 7.51183C11.7648 7.51289 11.5516 7.52192 11.3398 7.53712C14.0902 7.73442 16.5658 9.11379 18.3741 11.2349C18.8926 11.8431 18.8139 12.8407 18.1928 13.3284C18.6149 13.6525 19.1773 13.6567 19.5991 13.298L19.6 13.2973C20.1846 12.8001 20.2515 11.8314 19.7429 11.2349Z" fill="#00B34D"/>
<path d="M15.6773 14.4781C14.6634 13.5621 13.3801 13.0167 11.9881 13.0235C11.7649 13.0246 11.5447 13.04 11.3281 13.0686C12.4454 13.2161 13.4692 13.7199 14.3084 14.4781C14.9355 15.0446 14.905 16.1541 14.2322 16.6805C14.6599 17.0073 15.2227 17.005 15.6402 16.6501C16.2715 16.1133 16.295 15.0362 15.6773 14.4781Z" fill="#00CC58"/>
<path d="M12.0008 18.8789C11.7545 18.8789 11.522 18.9406 11.3164 19.0492C11.8057 19.3077 12.1416 19.8337 12.1416 20.4396C12.1416 21.0454 11.8056 21.5715 11.3164 21.8299C11.522 21.9385 11.7545 22.0002 12.0008 22.0002C12.8332 22.0002 13.5104 21.3001 13.5104 20.4396C13.5104 19.579 12.8332 18.8789 12.0008 18.8789Z" fill="#01DE60"/>
</g>
<defs>
<clipPath id="clip0_2302_13847">
<rect width="24" height="24" fill="white"/>
</clipPath>
</defs>
</svg>
